<?xml version="1.0" encoding="UTF-8" standalone="no"?>
<!-- Created with Inkscape (http://www.inkscape.org/) -->

<svg
   width="216.265mm"
   height="152.48399mm"
   viewBox="0 0 216.265 152.48399"
   version="1.1"
   id="svg3153"
   inkscape:version="1.2.2 (732a01da63, 2022-12-09)"
   sodipodi:docname="logo.svg"
   xmlns:inkscape="http://www.inkscape.org/namespaces/inkscape"
   xmlns:sodipodi="http://sodipodi.sourceforge.net/DTD/sodipodi-0.dtd"
   xmlns="http://www.w3.org/2000/svg"
   xmlns:svg="http://www.w3.org/2000/svg">
  <sodipodi:namedview
     id="namedview3155"
     pagecolor="#ffffff"
     bordercolor="#000000"
     borderopacity="0.25"
     inkscape:showpageshadow="2"
     inkscape:pageopacity="0.0"
     inkscape:pagecheckerboard="0"
     inkscape:deskcolor="#d1d1d1"
     inkscape:document-units="mm"
     showgrid="false"
     inkscape:zoom="0.18462928"
     inkscape:cx="915.34778"
     inkscape:cy="1308.0266"
     inkscape:window-width="1350"
     inkscape:window-height="1032"
     inkscape:window-x="2055"
     inkscape:window-y="76"
     inkscape:window-maximized="0"
     inkscape:current-layer="layer1" />
  <defs
     id="defs3150" />
  <g
     inkscape:label="Capa 1"
     inkscape:groupmode="layer"
     id="layer1">
    <g
       id="g3241"
       transform="translate(-305.89381,-558.79529)">
      <g
         id="g3125">
        <g
           id="g3109"
           transform="translate(-3.8486778)">
          <path
             style="fill:#333333;fill-opacity:1;stroke-width:0.27759"
             d="m 472.75072,708.52151 c -0.45366,-0.50056 -0.93854,-1.2378 -1.07751,-1.63829 -0.65036,-1.87412 -1.48973,0.28454 21.05138,-54.13907 12.12687,-29.28038 21.57554,-51.81078 22.08981,-52.6757 1.08834,-1.8305 2.29308,-2.92644 3.55537,-3.23426 0.78461,-0.19136 1.41036,-0.0528 3.7358,0.82717 2.68238,1.01507 2.81359,1.09611 3.30395,2.04147 1.0291,1.98397 0.75693,4.61657 -1.03051,9.96801 -5.52769,16.54936 -14.06006,41.2297 -14.67705,42.45414 -0.41535,0.82433 -1.1925,1.8718 -1.72697,2.32774 -1.24385,1.06106 -3.93304,1.98132 -5.36335,1.83536 l -1.11154,-0.11343 -10.77987,26.01829 -10.77987,26.01829 -0.9854,0.77426 c -1.88015,1.47728 -4.63136,1.27154 -6.20424,-0.46398 z"
             id="path3081" />
          <path
             style="fill:#333333;fill-opacity:1;stroke-width:0.27759"
             d="m 368.21777,711.25719 c -1.0766,0.14498 -2.7863,-0.44687 -3.69387,-1.2787 -0.59629,-0.54653 -3.28026,-6.32758 -16.02497,-34.51642 l -15.30873,-33.85995 -1.83343,-0.3308 c -2.18904,-0.39495 -3.73309,-1.14922 -5.56732,-2.71963 l -1.35891,-1.16347 -7.27726,-15.90232 c -4.00249,-8.7463 -7.33142,-16.19532 -7.39717,-16.55364 -0.0732,-0.39758 0.15689,-0.94823 0.59078,-1.41361 0.98548,-1.05697 2.45755,-1.11195 3.39402,-0.12675 0.46055,0.48451 2.51695,4.80199 6.8139,14.30602 5.96751,13.19899 6.17269,13.61332 6.76191,13.65272 0.88355,0.0591 1.98848,-0.51272 2.4301,-1.25758 l 0.38414,-0.64792 -6.17457,-13.65693 c -6.78147,-14.99929 -6.72139,-14.82211 -5.43542,-16.04449 0.77925,-0.7407 2.18668,-0.94719 2.87166,-0.42126 0.28207,0.21656 2.86283,5.67242 6.74754,14.26464 l 6.29075,13.91395 0.74018,0.13958 c 0.98314,0.18541 2.26256,-0.42121 2.67501,-1.26825 0.33021,-0.6782 0.28338,-0.79437 -5.9182,-14.68063 -6.20217,-13.88764 -6.24874,-14.00311 -5.95674,-14.77672 0.41812,-1.10776 1.8371,-1.74283 3.00302,-1.34402 l 0.90984,0.3112 7.05825,15.61151 c 6.75336,14.9371 7.06842,15.69278 7.2947,17.49259 0.33564,2.67013 -0.36328,5.45728 -1.98185,7.9031 l -0.49771,0.75212 15.2871,33.82739 c 14.58895,32.28322 15.28696,33.88309 15.28012,35.04913 -0.008,1.45329 -0.32878,2.2476 -1.34613,3.33877 -0.83028,0.89054 -1.50121,1.23087 -2.76089,1.40049 z"
             id="path3083" />
        </g>
        <g
           id="g3105"
           transform="translate(523.39206,282.63934)">
          <circle
             style="fill:#ffffff;fill-opacity:1;stroke:none;stroke-width:7;stroke-linecap:round;stroke-dasharray:none;stroke-dashoffset:56.0882"
             id="circle3085"
             cx="-106.85791"
             cy="343.80511"
             r="65.232521" />
          <g
             id="g3103"
             transform="translate(-213.30401,203.67746)">
            <path
               style="fill:#78d2fa;fill-opacity:1;stroke-width:0.264583"
               d="M 107.85931,201.19194 C 95.634747,196.82942 84.242522,188.13814 76.791446,177.48987 l -1.13148,-1.61699 0.945348,-1.23847 c 1.049496,-1.37492 1.75292,-3.39506 1.753013,-5.03443 3.2e-5,-0.59205 -0.312817,-2.13993 -0.695222,-3.43974 -0.652735,-2.21866 -0.675354,-2.47479 -0.369639,-4.18548 0.545021,-3.04974 -0.188912,-5.68516 -2.121423,-7.61767 -1.447491,-1.44749 -2.817077,-2.06562 -6.132592,-2.76782 -1.590717,-0.33689 -2.957047,-0.67737 -3.036284,-0.75661 -0.284604,-0.2846 -0.597884,-2.61615 -0.887381,-6.60424 -0.767193,-10.56881 1.446766,-22.11493 6.11473,-31.88924 1.4772,-3.09313 4.184872,-7.87298 5.25948,-9.28455 l 0.491773,-0.64598 -0.135544,1.20255 c -0.07743,0.68696 -0.0019,1.4524 0.176329,1.78529 0.17153,0.32051 1.851925,2.73698 3.734207,5.36993 1.882286,2.63295 3.422338,4.87001 3.422338,4.97124 0,0.10124 -0.252817,0.41087 -0.561816,0.68809 -0.308996,0.27722 -1.371648,1.57559 -2.361446,2.88528 -0.989798,1.30968 -2.692294,3.47601 -3.783327,4.81404 -3.365143,4.127 -4.592987,7.57947 -4.310144,12.11929 0.0816,1.30969 0.32753,2.95234 0.546518,3.65035 1.537919,4.90199 5.663633,8.88699 10.500087,10.14198 2.126231,0.55172 5.627139,0.54864 7.990191,-0.007 2.226244,-0.52351 3.469116,-0.53852 3.959812,-0.0478 0.223271,0.22328 0.436547,1.1765 0.525047,2.34668 0.167505,2.2148 0.662279,3.36098 2.290186,5.30539 1.745103,2.0844 1.848273,2.96248 0.76649,6.52401 -0.7355,2.42149 -0.690489,4.93627 0.132601,7.40834 0.915032,2.74819 4.480562,11.3281 5.511042,13.26148 2.72235,5.10764 7.98637,4.805 13.70202,-0.78777 1.66274,-1.62699 2.40961,-2.89223 2.90776,-4.92589 0.19408,-0.79232 0.82891,-2.00271 1.59586,-3.04271 0.70047,-0.94984 1.54966,-2.38183 1.8871,-3.1822 0.33743,-0.80036 1.21445,-2.14116 1.94892,-2.97956 2.07148,-2.3646 2.77859,-3.92738 2.78202,-6.14856 0.002,-1.01865 -0.18358,-2.4474 -0.41144,-3.175 -0.22786,-0.72761 -0.40904,-1.85203 -0.40263,-2.49873 0.0154,-1.55669 1.28487,-3.40238 4.06942,-5.91669 4.84532,-4.37507 6.47209,-7.51872 5.22447,-10.09597 -0.74996,-1.54922 -1.70559,-2.09118 -4.89841,-2.77802 -1.75272,-0.37704 -2.84772,-0.75952 -3.24622,-1.13389 -1.08741,-1.02158 -2.14208,-2.94608 -3.8862,-7.09133 -3.99238,-9.4887 -4.68195,-10.18749 -12.12576,-12.28789 l -3.62969,-1.02418 -1.445,0.45549 c -0.79475,0.25053 -1.80033,0.81083 -2.23462,1.24511 l -0.78961,0.78962 -1.33704,-0.82269 c -1.11764,-0.68769 -1.33702,-0.95059 -1.33702,-1.60223 0,-2.01835 -1.47069,-3.65793 -3.920204,-4.37039 -1.237258,-0.35987 -2.195393,-0.40749 -5.406363,-0.26868 -2.146432,0.0928 -3.902604,0.10408 -3.902604,0.0251 0,-0.45537 0.896204,-1.73997 1.716124,-2.45987 1.280531,-1.12432 2.575801,-1.62592 4.203166,-1.62769 0.746214,-7.9e-4 1.798105,-0.12405 2.337535,-0.27387 0.996693,-0.2768 2.061926,-1.42002 2.061926,-2.21288 0,-0.35917 0.40645,-0.42218 2.72341,-0.42218 h 2.72341 l 0.25315,0.83836 c 0.55504,1.83809 3.1059,2.57531 4.47158,1.29232 0.372,-0.34948 0.67637,-0.80028 0.67637,-1.00179 0,-0.23086 0.12232,-0.2872 0.33073,-0.15232 0.1819,0.11773 1.16226,0.51989 2.17859,0.89368 1.83927,0.67647 1.84877,0.68508 2.04394,1.85209 0.25328,1.51445 0.92074,2.07973 3.53988,2.99795 1.78889,0.62716 2.34863,0.98486 3.84889,2.45967 1.64303,1.61516 1.76283,1.81331 1.86878,3.09089 0.0928,1.11891 0.74616,2.581 3.62286,8.10702 1.97077,3.78577 3.85049,7.06096 4.28696,7.46953 1.04115,0.97458 1.89968,0.93443 4.83719,-0.22624 4.13924,-1.6355 7.54812,-3.7119 10.94559,-6.6671 1.86784,-1.6247 2.50585,-2.97179 1.96729,-4.1538 -0.27951,-0.61346 -0.25124,-0.66067 0.39573,-0.66067 0.47165,0 1.03051,0.35085 1.72981,1.08597 2.52563,2.65498 2.96624,3.44981 4.96844,8.96273 1.72439,4.74799 2.04031,5.41832 2.76054,5.85752 1.5701,0.95745 2.71153,0.55341 4.86292,-1.72137 0.76811,-0.81216 1.61743,-1.96999 1.88739,-2.57297 l 0.49083,-1.09631 0.19608,2.61357 c 0.26126,3.48259 -0.0126,10.73898 -0.52313,13.85835 -1.84622,11.28163 -6.34156,21.48293 -13.2332,30.03021 -1.96188,2.43319 -6.00599,6.53081 -8.60644,8.72031 -0.79825,0.67211 -1.59771,1.4853 -1.77656,1.8071 -0.38891,0.69972 -0.43706,1.9011 -0.10135,2.52838 0.19848,0.37087 -0.0408,0.63679 -1.316,1.46246 l -1.55859,1.00917 -0.70406,-0.55382 c -1.05497,-0.82984 -2.53227,-0.74035 -3.60508,0.21838 -0.75216,0.67218 -0.86074,0.93143 -0.83829,2.00172 l 0.0258,1.22953 -2.06012,1.0358 c -1.87284,0.94165 -2.07401,0.99203 -2.21298,0.55419 -0.1448,-0.45624 -0.75594,-0.86207 -1.80378,-1.19783 -0.25798,-0.0827 -1.98439,0.33183 -3.83646,0.92108 -4.34705,1.38307 -7.96997,2.25275 -11.43739,2.74551 -3.70517,0.52656 -3.67388,0.52951 -7.01125,-0.66148 z m 31.48717,-17.57421 c 2.33253,-1.36695 3.50332,-3.86091 6.38623,-13.60367 l 1.75109,-5.9178 -0.84357,-3.07397 c -0.46396,-1.69069 -1.03471,-3.28519 -1.26834,-3.54334 -0.23363,-0.25815 -0.87271,-0.60358 -1.4202,-0.7676 -1.60079,-0.47961 -2.50036,0.21462 -3.94551,3.04491 -1.14434,2.24118 -1.25697,2.36689 -2.89743,3.23407 -3.47584,1.83738 -4.49599,3.43358 -4.50509,7.04898 -0.004,1.75015 -0.16602,2.78679 -0.66727,4.27998 -1.3717,4.08623 -0.50026,7.29405 2.4992,9.19964 1.55265,0.98642 3.3351,1.02228 4.91089,0.0988 z m -28.95274,-37.60584 c 0.0127,-0.30822 0.0754,-0.37091 0.15985,-0.15985 0.0764,0.191 0.067,0.4192 -0.0209,0.50712 -0.0879,0.0879 -0.15046,-0.0684 -0.13897,-0.34727 z m -10.533044,-4.52693 c 0.257434,-0.0671 0.614624,-0.0627 0.793754,0.01 0.17913,0.0725 -0.0315,0.12736 -0.46806,0.12197 -0.436563,-0.005 -0.583126,-0.0647 -0.325694,-0.13177 z M 43.983322,139.6619 c 0.0127,-0.30823 0.07539,-0.37092 0.159853,-0.15986 0.07643,0.191 0.06703,0.4192 -0.02089,0.50712 -0.08792,0.0879 -0.150453,-0.0684 -0.138964,-0.34726 z m 4.361748,-6.80239 c 0.09936,-0.26094 0.247304,-0.40778 0.328766,-0.32632 0.08146,0.0815 1.67e-4,0.29496 -0.180654,0.47443 -0.261306,0.25937 -0.291697,0.22898 -0.148112,-0.14811 z m 38.500751,-2.72261 c 0.0127,-0.30823 0.07539,-0.37092 0.159851,-0.15986 0.07643,0.191 0.06703,0.4192 -0.02088,0.50712 -0.08792,0.0879 -0.150452,-0.0684 -0.138964,-0.34726 z M 148.94286,116.868 c 0.62231,-0.0559 1.57481,-0.0551 2.11667,0.002 0.54186,0.0568 0.0327,0.10258 -1.13147,0.10162 -1.16417,-0.001 -1.60751,-0.0475 -0.9852,-0.10337 z m -20.87668,-4.76687 c -0.3291,-0.41964 -0.31974,-0.429 0.0999,-0.0999 0.44073,0.34564 0.58089,0.56291 0.36312,0.56291 -0.0549,0 -0.2633,-0.20836 -0.46302,-0.46302 z m 23.31709,0.36313 c 0,-0.0549 0.20836,-0.2633 0.46302,-0.46302 0.41964,-0.32911 0.429,-0.31975 0.0999,0.0999 -0.34564,0.44073 -0.56291,0.58089 -0.56291,0.36313 z m 5.50664,-6.16626 c 0.19099,-0.0764 0.4192,-0.067 0.50712,0.0209 0.0879,0.0879 -0.0684,0.15046 -0.34727,0.13897 -0.30823,-0.0127 -0.37092,-0.0754 -0.15985,-0.15985 z m -28.41824,-8.087492 -0.50403,-0.595313 0.59532,0.504028 c 0.55944,0.473662 0.71576,0.686597 0.50402,0.686597 -0.0502,0 -0.31809,-0.267891 -0.59531,-0.595312 z M 65.790558,97.482903 c 0.26339,-0.291041 0.538422,-0.529166 0.611183,-0.529166 0.07276,0 -0.08321,0.238125 -0.346599,0.529166 -0.26339,0.291042 -0.538422,0.529167 -0.611183,0.529167 -0.07276,0 0.08321,-0.238125 0.346599,-0.529167 z m -3.704166,-1.322916 c 0.263389,-0.291042 0.53842,-0.529167 0.611181,-0.529167 0.07276,0 -0.08321,0.238125 -0.346598,0.529167 -0.263389,0.291041 -0.53842,0.529166 -0.611181,0.529166 -0.07276,0 0.08321,-0.238125 0.346598,-0.529166 z m 42.414648,-3.372766 c 1.79098,-0.04584 4.64848,-0.0457 6.35001,3.18e-4 1.70152,0.04601 0.23618,0.08352 -3.25632,0.08335 -3.49251,-1.73e-4 -4.88466,-0.03782 -3.09369,-0.08366 z M 95.556182,84.97445 c 0.509323,-0.357091 2.350111,-1.403552 4.090641,-2.325468 3.370677,-1.785365 3.321877,-1.796222 1.628497,0.362327 -0.31654,0.403488 -3.673941,1.763204 -5.983721,2.42335 -0.549524,0.157056 -0.504751,0.07918 0.264583,-0.460209 z"
               id="path3087" />
            <path
               style="fill:#b9b9b9;fill-opacity:1;stroke-width:0.264583"
               d="m 144.5041,189.458 c 0,-0.0549 0.20836,-0.2633 0.46302,-0.46302 0.41965,-0.32911 0.429,-0.31975 0.0999,0.0999 -0.34565,0.44073 -0.56292,0.58089 -0.56292,0.36312 z m -87.205347,-2.61208 -0.504028,-0.59531 0.595313,0.50403 c 0.559447,0.47366 0.715762,0.68659 0.504028,0.68659 -0.05021,0 -0.318097,-0.26789 -0.595313,-0.59531 z m 92.232427,-1.91823 c 0.49366,-0.50932 0.95709,-0.92604 1.02985,-0.92604 0.0728,0 -0.27161,0.41672 -0.76526,0.92604 -0.49366,0.50932 -0.95709,0.92604 -1.02985,0.92604 -0.0728,0 0.27161,-0.41672 0.76526,-0.92604 z m -30.1625,-1.32292 c 0.34178,-0.3638 0.68094,-0.66145 0.7537,-0.66145 0.0728,0 -0.14734,0.29765 -0.48911,0.66145 -0.34178,0.36381 -0.68094,0.66146 -0.7537,0.66146 -0.0728,0 0.14734,-0.29765 0.48911,-0.66146 z m 31.75,-0.23218 c 0,-0.0549 0.20836,-0.2633 0.46302,-0.46302 0.41965,-0.32911 0.42901,-0.31975 0.0999,0.0999 -0.34564,0.44073 -0.56292,0.58089 -0.56292,0.36313 z m -11.1125,-0.26459 c 0,-0.0549 0.20836,-0.2633 0.46302,-0.46302 0.41965,-0.3291 0.42901,-0.31975 0.0999,0.0999 -0.34564,0.44073 -0.56292,0.58089 -0.56292,0.36312 z m -25.4,-2.38125 c 0,-0.0549 0.20836,-0.2633 0.46303,-0.46302 0.41964,-0.3291 0.429,-0.31975 0.0999,0.0999 -0.34564,0.44073 -0.56292,0.58089 -0.56292,0.36312 z M 65.624516,176.1303 c -0.329107,-0.41965 -0.319749,-0.42901 0.0999,-0.0999 0.254661,0.19972 0.46302,0.40808 0.46302,0.46302 0,0.21776 -0.217273,0.0776 -0.562917,-0.36312 z m -1.058332,-1.32292 c -0.329107,-0.41965 -0.319749,-0.429 0.09989,-0.0999 0.254662,0.19972 0.463021,0.40808 0.463021,0.46302 0,0.21777 -0.217272,0.0776 -0.562916,-0.36312 z m 62.475416,-4.66396 c 0,-0.0549 0.20836,-0.2633 0.46302,-0.46302 0.41965,-0.32911 0.42901,-0.31975 0.0999,0.0999 -0.34565,0.44073 -0.56292,0.58088 -0.56292,0.36312 z m -28.024946,-2.43569 c 0.0127,-0.30823 0.07539,-0.37092 0.159851,-0.15986 0.07643,0.191 0.06703,0.4192 -0.02088,0.50712 -0.08792,0.0879 -0.150453,-0.0684 -0.138965,-0.34726 z m 14.053616,-5.5342 c 0.005,-0.43657 0.0647,-0.58313 0.13177,-0.3257 0.0671,0.25743 0.0627,0.61462 -0.01,0.79375 -0.0725,0.17913 -0.12736,-0.0315 -0.12197,-0.46805 z m -0.0307,-1.60955 c 0.0127,-0.30823 0.0754,-0.37092 0.15985,-0.15986 0.0764,0.191 0.067,0.4192 -0.0209,0.50712 -0.0879,0.0879 -0.15045,-0.0683 -0.13897,-0.34726 z m 16.13959,-2.64584 c 0.0127,-0.30822 0.0754,-0.37091 0.15985,-0.15985 0.0764,0.191 0.067,0.4192 -0.0209,0.50712 -0.0879,0.0879 -0.15045,-0.0684 -0.13896,-0.34727 z m -14.79578,-3.02066 c 0,-0.3638 0.0601,-0.51263 0.13345,-0.33073 0.0734,0.18191 0.0734,0.47956 0,0.66146 -0.0734,0.1819 -0.13345,0.0331 -0.13345,-0.33073 z m 20.46343,-4.23333 c 0.71666,-0.7276 1.36256,-1.32292 1.43532,-1.32292 0.0728,0 -0.45407,0.59532 -1.17074,1.32292 -0.71666,0.7276 -1.36255,1.32292 -1.43531,1.32292 -0.0728,0 0.45407,-0.59532 1.17073,-1.32292 z m -32.91974,-0.15434 c 0.0127,-0.30822 0.0754,-0.37092 0.15985,-0.15985 0.0764,0.19099 0.067,0.4192 -0.0209,0.50712 -0.0879,0.0879 -0.15045,-0.0684 -0.13896,-0.34727 z m 10.6696,-0.44097 -0.50403,-0.59531 0.59532,0.50402 c 0.55944,0.47367 0.71576,0.6866 0.50402,0.6866 -0.0502,0 -0.31809,-0.26789 -0.59531,-0.59531 z m -1.19924,-1.45521 c -0.3291,-0.41964 -0.31974,-0.429 0.0999,-0.0999 0.25466,0.19972 0.46302,0.40808 0.46302,0.46302 0,0.21777 -0.21727,0.0776 -0.56292,-0.36312 z m -0.95786,-3.9026 c 0.003,-0.58209 0.0571,-0.78906 0.12041,-0.45994 0.0633,0.32912 0.0609,0.80537 -0.005,1.05833 -0.0662,0.25297 -0.11801,-0.0163 -0.11507,-0.59839 z m -1.0179,-2.84427 -0.50403,-0.59532 0.59532,0.50403 c 0.32742,0.27722 0.59531,0.54511 0.59531,0.59531 0,0.21174 -0.21294,0.0554 -0.6866,-0.50402 z m -65.438348,-0.35278 c 0.0127,-0.30823 0.07539,-0.37092 0.159853,-0.15985 0.07643,0.19099 0.06703,0.4192 -0.02089,0.50711 -0.08792,0.0879 -0.150453,-0.0684 -0.138964,-0.34726 z m 54.681714,-0.0209 c 0.181901,-0.0734 0.479557,-0.0734 0.661458,0 0.181901,0.0734 0.03307,0.13345 -0.330729,0.13345 -0.363802,0 -0.51263,-0.0601 -0.330729,-0.13345 z m 6.882254,-1.07023 c 0.32912,-0.0633 0.80537,-0.0609 1.05833,0.005 0.25297,0.0662 -0.0163,0.118 -0.5984,0.11507 -0.58208,-0.003 -0.78905,-0.0571 -0.45993,-0.12041 z m -13.729025,-1.33423 c -0.329107,-0.41964 -0.319749,-0.429 0.0999,-0.0999 0.254662,0.19973 0.463021,0.40808 0.463021,0.46303 0,0.21776 -0.217273,0.0776 -0.562917,-0.36313 z m -47.834943,-0.22048 c 0.0127,-0.30823 0.07539,-0.37092 0.159853,-0.15986 0.07643,0.191 0.06703,0.4192 -0.02089,0.50712 -0.08792,0.0879 -0.150453,-0.0683 -0.138964,-0.34726 z m 46.388347,-0.97014 -0.504029,-0.59532 0.595313,0.50403 c 0.559446,0.47366 0.715761,0.6866 0.504029,0.6866 -0.05021,0 -0.318098,-0.26789 -0.595313,-0.59531 z m 69.973681,-0.1323 c -0.32911,-0.41964 -0.31975,-0.429 0.0999,-0.0999 0.25466,0.19972 0.46302,0.40808 0.46302,0.46302 0,0.21776 -0.21728,0.0776 -0.56292,-0.36313 z m -73.234946,-6.3059 c 0.0127,-0.30822 0.07539,-0.37092 0.159851,-0.15985 0.07643,0.19099 0.06703,0.4192 -0.02088,0.50712 -0.08792,0.0879 -0.150453,-0.0684 -0.138965,-0.34727 z m -0.224088,-2.49149 c 0,-0.50932 0.05445,-0.71768 0.121002,-0.46302 0.06655,0.25466 0.06655,0.67138 0,0.92604 -0.06655,0.25466 -0.121002,0.0463 -0.121002,-0.46302 z m 62.380284,-1.95198 c 0,-0.0549 0.20836,-0.2633 0.46302,-0.46302 0.41965,-0.32911 0.429,-0.31975 0.0999,0.0999 -0.34565,0.44073 -0.56292,0.58089 -0.56292,0.36313 z m -70.379167,-4.7625 c 0,-0.0549 0.208359,-0.2633 0.46302,-0.46302 0.419646,-0.32911 0.429004,-0.31975 0.0999,0.0999 -0.345644,0.44073 -0.562917,0.58089 -0.562917,0.36313 z m 10.318749,-0.79375 c 0,-0.0549 0.20836,-0.2633 0.463021,-0.46302 0.419645,-0.32911 0.429003,-0.31975 0.0999,0.0999 -0.345644,0.44073 -0.562917,0.58089 -0.562917,0.36313 z m 0.79375,-1.05833 c 0,-0.0549 0.20836,-0.2633 0.463021,-0.46302 0.419645,-0.32911 0.429003,-0.31975 0.0999,0.0999 -0.345644,0.44073 -0.562917,0.58089 -0.562917,0.36313 z m 49.875838,-2.01374 c -0.0927,-0.14999 0.0135,-0.19434 0.24896,-0.10399 0.45837,0.17589 0.54224,0.36554 0.16165,0.36554 -0.13693,0 -0.32171,-0.1177 -0.41061,-0.26155 z m -14.98459,-1.78897 c -0.3291,-0.41965 -0.31974,-0.42901 0.0999,-0.0999 0.25466,0.19972 0.46302,0.40808 0.46302,0.46302 0,0.21777 -0.21727,0.0776 -0.56292,-0.36312 z m 25.83063,-3.77031 c 0.26339,-0.29105 0.53842,-0.52917 0.61118,-0.52917 0.0728,0 -0.0832,0.23812 -0.3466,0.52917 -0.26339,0.29104 -0.53842,0.52916 -0.61118,0.52916 -0.0728,0 0.0832,-0.23812 0.3466,-0.52916 z m 1.94067,-1.67328 c 0.31774,-0.33822 0.48732,-0.71449 0.37685,-0.83617 -0.11047,-0.12167 -0.0431,-0.13005 0.14977,-0.0186 0.27249,0.15747 0.21799,0.34382 -0.24456,0.83617 -0.32735,0.34845 -0.65471,0.63355 -0.72747,0.63355 -0.0728,0 0.12767,-0.27672 0.44541,-0.61494 z m -55.846442,-2.21802 c 0.329118,-0.0633 0.805367,-0.0609 1.058333,0.005 0.252965,0.0662 -0.01632,0.11801 -0.598398,0.11507 -0.582083,-0.003 -0.789053,-0.0571 -0.459935,-0.1204 z m 61.710982,-2.19412 c -0.23847,-0.15411 -0.2711,-0.2581 -0.0818,-0.26053 0.17332,-0.002 0.3887,0.11501 0.47864,0.26053 0.20302,0.32849 0.11142,0.32849 -0.39687,0 z M 133.17704,104.236 c -0.05,-1.58121 -0.0501,-1.58136 -1.96599,-3.57187 l -1.91597,-1.990602 2.06294,2.001182 2.06293,2.00119 -0.0969,1.57069 -0.0969,1.57069 z m -72.01669,-1.29674 c 0,-0.0549 0.20836,-0.2633 0.463021,-0.46302 0.419644,-0.32911 0.429002,-0.31975 0.0999,0.0999 -0.345644,0.44073 -0.562916,0.58089 -0.562916,0.36313 z m 1.322917,-1.5875 c 0,-0.0549 0.208359,-0.2633 0.463021,-0.46302 0.419644,-0.32911 0.429002,-0.31975 0.09989,0.0999 -0.345643,0.44073 -0.562915,0.58089 -0.562915,0.36313 z m 1.322916,-1.587503 c 0,-0.05494 0.20836,-0.2633 0.463021,-0.463021 0.419644,-0.329107 0.429003,-0.319749 0.09989,0.0999 -0.345643,0.440729 -0.562916,0.580887 -0.562916,0.363124 z m -2.910416,-2.381248 c 0,-0.05494 0.208359,-0.263302 0.463021,-0.463021 0.419644,-0.329108 0.429002,-0.319749 0.09989,0.09989 -0.345643,0.440729 -0.562915,0.580887 -0.562915,0.363126 z M 93.968682,96.34178 c 0,-0.04554 0.386953,-0.432488 0.859896,-0.859896 l 0.859896,-0.777105 -0.777105,0.859895 c -0.724371,0.801544 -0.942687,0.981512 -0.942687,0.777106 z M 56.662434,93.943426 c 0,-0.05494 0.208359,-0.263302 0.463021,-0.463021 0.419644,-0.329108 0.429002,-0.31975 0.09989,0.09989 -0.345643,0.44073 -0.562915,0.580888 -0.562915,0.363127 z m 43.727426,-1.141793 c 0.25743,-0.06708 0.61462,-0.06267 0.79375,0.0098 0.17913,0.07247 -0.0315,0.127362 -0.46805,0.12197 -0.43657,-0.0054 -0.58313,-0.06469 -0.3257,-0.131774 z"
               id="path3089" />
            <path
               style="fill:#a5dc69;fill-opacity:1;stroke-width:0.264583"
               d="m 106.63493,186.71363 c -0.32911,-0.41965 -0.31975,-0.42901 0.0999,-0.0999 0.44073,0.34565 0.58089,0.56292 0.36313,0.56292 -0.0549,0 -0.2633,-0.20836 -0.46302,-0.46302 z m 41.30875,-0.16604 c 0,-0.0549 0.20836,-0.2633 0.46302,-0.46302 0.41965,-0.32911 0.42901,-0.31975 0.0999,0.0999 -0.34564,0.44073 -0.56292,0.58089 -0.56292,0.36313 z M 115.39993,179.933 c 0,-0.0549 0.20836,-0.2633 0.46303,-0.46302 0.41964,-0.3291 0.429,-0.31975 0.0999,0.0999 -0.34564,0.44073 -0.56292,0.58089 -0.56292,0.36312 z m 21.45212,-2.16886 c -0.0115,-0.44746 0.28387,-1.69761 0.65633,-2.77813 0.512,-1.48532 0.66442,-2.41637 0.62482,-3.81665 -0.0723,-2.55853 -0.12623,-2.43008 1.32859,-3.16728 l 1.30768,-0.66266 -0.39961,1.3858 c -1.11935,3.88171 -2.27824,7.34537 -2.85387,8.52955 -0.61579,1.2668 -0.64395,1.28841 -0.66394,0.50937 z m -72.179866,-3.06942 c -3.400019,-4.28573 -7.033604,-10.6858 -9.191325,-16.18928 -1.161983,-2.96375 -3.139228,-9.57969 -2.988778,-10.00057 0.03812,-0.10664 2.32092,1.51555 5.072886,3.60486 l 5.003575,3.79875 3.859966,0.7431 c 3.548346,0.68311 3.9321,0.81376 4.753467,1.61831 0.83521,0.81812 0.882648,0.95674 0.727128,2.12484 -0.509484,3.82677 -0.507505,3.88977 0.199221,6.34631 0.800478,2.78241 0.83466,3.25595 0.308472,4.27349 -0.406275,0.78565 -1.239655,1.25886 -3.514029,1.99536 -1.387229,0.44922 -2.447046,1.412 -2.454801,2.23005 -0.01172,1.23729 -0.474332,1.09526 -1.775782,-0.54522 z m 52.844416,-0.49416 c 0,-0.24751 -1.36987,-3.72548 -3.32227,-8.43489 -1.16712,-2.81524 -1.22828,-4.17108 -0.34703,-7.69305 0.65328,-2.61089 0.72503,-3.23875 0.50571,-4.42519 -0.29215,-1.58035 -0.8627,-2.82282 -1.73445,-3.77703 -1.48575,-1.62628 -1.98108,-2.67663 -1.9826,-4.20411 -0.002,-2.32094 -0.40441,-3.37618 -1.62284,-4.25881 -1.49054,-1.07974 -2.79053,-1.205 -5.71507,-0.55068 -5.391802,1.20632 -9.270231,0.30869 -12.498338,-2.89265 -2.453793,-2.43345 -3.710196,-5.48913 -3.710196,-9.02355 0,-2.87459 0.975497,-5.50254 3.174999,-8.5533 0.509323,-0.70645 0.906209,-1.35667 0.881965,-1.44494 -0.02424,-0.0883 1.366298,-0.20059 3.090085,-0.24959 3.020919,-0.0859 3.129182,-0.07 2.996334,0.43796 -0.299019,1.14344 0.622478,2.24264 3.286331,3.92006 3.40775,2.14586 4.5901,2.72025 5.99624,2.91298 1.82454,0.25008 2.94745,-0.0811 4.14842,-1.22358 l 1.08114,-1.02846 2.64518,0.78582 c 1.45485,0.43221 2.91778,0.96444 3.25094,1.18273 0.75295,0.49336 1.83528,2.51948 3.45248,6.46304 2.92161,7.12439 4.86305,10.02644 7.58672,11.34053 0.9177,0.44276 2.23409,0.88376 2.92531,0.98 0.69123,0.0962 1.25677,0.23959 1.25677,0.31858 0,0.079 -1.64073,1.82164 -3.64607,3.87256 -2.76165,2.82443 -3.829,4.11403 -4.4002,5.31645 -0.90043,1.89549 -1.16511,4.39816 -0.6875,6.5008 0.90109,3.96702 0.92416,3.82237 -0.92826,5.82269 -1.31806,1.42331 -2.23615,2.85341 -2.82885,4.40647 -0.42593,1.11608 -2.27964,3.74258 -2.65651,3.76398 -0.10914,0.006 -0.19844,-0.11297 -0.19844,-0.26482 z m -39.721251,-27.7036 c -0.329107,-0.41964 -0.319749,-0.429 0.0999,-0.0999 0.254662,0.19972 0.463021,0.40808 0.463021,0.46302 0,0.21776 -0.217273,0.0776 -0.562917,-0.36313 z m -33.812027,-4.18923 c 0.0127,-0.30823 0.07539,-0.37092 0.159853,-0.15985 0.07643,0.19099 0.06703,0.4192 -0.02089,0.50711 -0.08792,0.0879 -0.150453,-0.0684 -0.138964,-0.34726 z m 0,-4.23333 c 0.0127,-0.30823 0.07539,-0.37092 0.159853,-0.15986 0.07643,0.191 0.06703,0.4192 -0.02089,0.50712 -0.08792,0.0879 -0.150453,-0.0684 -0.138964,-0.34726 z m 34.395833,-2.91042 c 0.0127,-0.30823 0.07539,-0.37092 0.159851,-0.15985 0.07643,0.19099 0.06703,0.41919 -0.02088,0.50711 -0.08792,0.0879 -0.150453,-0.0683 -0.138965,-0.34726 z m -29.525857,-3.35139 c 0.339197,-2.1811 0.358744,-2.19014 1.454272,-0.67256 l 1.010764,1.40016 -0.701387,0.16714 c -0.385764,0.0919 -0.979744,0.18122 -1.319957,0.19844 -0.581768,0.0294 -0.608165,-0.0356 -0.443692,-1.09318 z m 1.759925,-7.74791 c 1.509708,-5.46771 5.032183,-12.84405 8.650635,-18.11511 1.683571,-2.45249 5.821851,-7.609649 6.845375,-8.530768 0.494252,-0.444802 0.532855,-0.424268 1.100235,0.585251 0.833538,1.483077 1.013,3.421377 0.452631,4.888687 -0.262022,0.68609 -1.309161,2.13097 -2.501365,3.45147 -1.648807,1.82624 -2.747242,3.49209 -5.605214,8.50072 l -3.554545,6.22937 -2.513541,1.78401 c -3.37977,2.39881 -3.180349,2.31511 -2.874211,1.20637 z m 89.170037,-6.14272 c -0.13285,-0.25466 -1.62532,-3.10379 -3.3166,-6.3314 -2.90368,-5.54132 -3.07506,-5.95457 -3.07506,-7.41495 v -1.54658 l -1.91823,-1.85301 c -1.05502,-1.019155 -2.22613,-2.119924 -2.60247,-2.446152 -0.38626,-0.334842 -3.77894,-1.685386 -7.79072,-3.101303 l -7.10649,-2.508161 h -6.79963 c -6.06924,0 -6.98026,0.05697 -8.481153,0.530384 -3.003933,0.947503 -5.083505,2.97478 -6.217885,6.061527 -0.245237,0.667313 -0.515504,1.295435 -0.600591,1.395835 -0.08509,0.10039 -1.210635,-1.304306 -2.501215,-3.121551 -1.290579,-1.817245 -2.30261,-3.338914 -2.248958,-3.381485 0.05365,-0.04257 3.609893,-1.302599 7.902757,-2.80006 4.292865,-1.497461 8.162395,-2.885298 8.598955,-3.084081 0.50502,-0.229953 2.18931,-2.14395 4.63022,-5.261681 l 3.83645,-4.900255 1.85209,0.157725 c 2.41253,0.205454 6.17152,0.96371 9.72271,1.961247 13.64359,3.832513 26.44079,13.088986 34.29725,24.807891 1.05622,1.57549 1.07516,1.63811 0.4201,1.38906 -0.37728,-0.14344 -1.92163,-0.26081 -3.43187,-0.26081 -2.49831,0 -2.78135,0.0506 -3.13902,0.56127 -0.45323,0.64707 -0.28137,1.28898 0.75238,2.81028 l 0.65935,0.97032 -0.59045,0.62927 c -1.89316,2.0176 -6.22289,4.77217 -9.90204,6.29967 -2.50307,1.03921 -2.62622,1.05745 -2.94988,0.437 z m -15.80951,-2.24895 -0.50402,-0.59532 0.59531,0.50403 c 0.32742,0.27722 0.59531,0.54511 0.59531,0.59532 0,0.21173 -0.21293,0.0554 -0.6866,-0.50403 z M 73.352072,100.76815 c 0.0127,-0.30823 0.07539,-0.37092 0.15985,-0.15986 0.07643,0.191 0.06703,0.4192 -0.02088,0.50712 -0.08792,0.0879 -0.150453,-0.0683 -0.138965,-0.34726 z M 60.102017,98.176759 c 0,-0.05494 0.208359,-0.263302 0.463021,-0.463021 0.419644,-0.329108 0.429002,-0.319749 0.09989,0.09989 -0.345644,0.440729 -0.562916,0.580887 -0.562916,0.363126 z M 57.456184,93.16678 c 0,-0.04554 0.386953,-0.432488 0.859896,-0.859896 l 0.859895,-0.777105 -0.777105,0.859896 c -0.724371,0.801543 -0.942686,0.981512 -0.942686,0.777105 z m 95.216246,-2.496897 c -0.3291,-0.419644 -0.31975,-0.429002 0.0999,-0.0999 0.44073,0.345644 0.58089,0.562916 0.36312,0.562916 -0.0549,0 -0.2633,-0.20836 -0.46302,-0.463021 z"
               id="path3091" />
            <path
               style="fill:#8c8c8c;fill-opacity:1;stroke-width:0.264583"
               d="m 152.97077,189.21052 c 0,-0.0455 0.38695,-0.43248 0.85989,-0.85989 l 0.8599,-0.77711 -0.77711,0.8599 c -0.72437,0.80154 -0.94268,0.98151 -0.94268,0.7771 z M 122.2791,167.233 c 0,-0.0549 0.20836,-0.2633 0.46302,-0.46302 0.41965,-0.3291 0.42901,-0.31975 0.0999,0.0999 -0.34565,0.44073 -0.56292,0.58089 -0.56292,0.36312 z m -44.912445,-7.17614 c 0.0029,-0.58208 0.05712,-0.78905 0.120407,-0.45994 0.06329,0.32912 0.06088,0.80537 -0.0053,1.05834 -0.06622,0.25296 -0.118004,-0.0163 -0.115067,-0.5984 z M 43.983322,143.10148 c 0.0127,-0.30823 0.07539,-0.37092 0.159853,-0.15985 0.07643,0.19099 0.06703,0.4192 -0.02089,0.50711 -0.08792,0.0879 -0.150453,-0.0683 -0.138964,-0.34726 z m 82.759948,-0.83785 c -0.32911,-0.41964 -0.31975,-0.429 0.0999,-0.0999 0.25466,0.19973 0.46302,0.40808 0.46302,0.46303 0,0.21776 -0.21727,0.0776 -0.56291,-0.36313 z m 41.8993,-2.18281 c 0,-0.50932 0.0545,-0.71768 0.121,-0.46302 0.0666,0.25466 0.0666,0.67138 0,0.92604 -0.0666,0.25466 -0.121,0.0463 -0.121,-0.46302 z m -3.50097,-3.04271 c 0.49365,-0.50932 0.95708,-0.92604 1.02984,-0.92604 0.0728,0 -0.2716,0.41672 -0.76526,0.92604 -0.49365,0.50932 -0.95708,0.92604 -1.02984,0.92604 -0.0728,0 0.2716,-0.41672 0.76526,-0.92604 z m -121.158278,0.24254 c 0.0127,-0.30823 0.07539,-0.37092 0.159853,-0.15986 0.07643,0.191 0.06703,0.4192 -0.02089,0.50712 -0.08792,0.0879 -0.150453,-0.0684 -0.138964,-0.34726 z m 34.395833,-1.32292 c 0.0127,-0.30823 0.07539,-0.37092 0.159851,-0.15985 0.07643,0.19099 0.06703,0.41919 -0.02088,0.50711 -0.08792,0.0879 -0.150453,-0.0684 -0.138965,-0.34726 z m -19.84375,-1.32292 c 0.0127,-0.30822 0.07539,-0.37092 0.159853,-0.15985 0.07643,0.19099 0.06703,0.4192 -0.02089,0.50712 -0.08792,0.0879 -0.150453,-0.0684 -0.138965,-0.34727 z m 66.985415,-16.6467 c 0.003,-0.58208 0.0571,-0.78905 0.12041,-0.45994 0.0633,0.32912 0.0609,0.80537 -0.005,1.05834 -0.0662,0.25296 -0.11801,-0.0163 -0.11507,-0.5984 z m -2.48172,-3.24114 c -0.32911,-0.41965 -0.31975,-0.42901 0.0999,-0.0999 0.44073,0.34564 0.58088,0.56292 0.36312,0.56292 -0.0549,0 -0.2633,-0.20836 -0.46302,-0.46302 z m -58.968333,-7.3098 c 0,-0.0549 0.208359,-0.2633 0.463021,-0.46302 0.419644,-0.3291 0.429002,-0.31975 0.09989,0.0999 -0.345643,0.44073 -0.562915,0.58089 -0.562915,0.36312 z m 84.773823,-12.930829 -0.50403,-0.595312 0.59531,0.504028 c 0.55945,0.473661 0.71576,0.686597 0.50403,0.686597 -0.0502,0 -0.3181,-0.267891 -0.59531,-0.595313 z m -78.973017,-1.719792 -0.641432,-0.727604 0.727605,0.641433 c 0.400182,0.352789 0.727604,0.680211 0.727604,0.727605 0,0.207505 -0.21426,0.03862 -0.813777,-0.641434 z m 83.872917,-1.058333 -0.64143,-0.727604 0.7276,0.641433 c 0.40018,0.352788 0.72761,0.68021 0.72761,0.727604 0,0.207506 -0.21426,0.03862 -0.81378,-0.641433 z"
               id="path3093" />
            <path
               style="fill:#767676;fill-opacity:1;stroke-width:0.264583"
               d="m 75.44785,175.69967 c 0,-0.0549 0.208359,-0.2633 0.46302,-0.46302 0.419645,-0.32911 0.429004,-0.31975 0.0999,0.0999 -0.345643,0.44073 -0.562916,0.58088 -0.562916,0.36312 z m 2.712555,-6.11781 c 0.0029,-0.58209 0.05712,-0.78906 0.120407,-0.45994 0.06329,0.32912 0.06088,0.80537 -0.0053,1.05834 -0.06622,0.25296 -0.118004,-0.0163 -0.115067,-0.5984 z m 52.849945,-22.75417 c 0.34178,-0.3638 0.68094,-0.66146 0.7537,-0.66146 0.0728,0 -0.14734,0.29766 -0.48912,0.66146 -0.34177,0.3638 -0.68094,0.66146 -0.7537,0.66146 -0.0728,0 0.14735,-0.29766 0.48912,-0.66146 z m 42.88339,-2.93246 c 0.0127,-0.30823 0.0754,-0.37092 0.15985,-0.15985 0.0764,0.19099 0.067,0.4192 -0.0209,0.50711 -0.0879,0.0879 -0.15045,-0.0684 -0.13896,-0.34726 z m -5.27078,-2.4915 c 0,-0.3638 0.0601,-0.51263 0.13345,-0.33072 0.0734,0.1819 0.0734,0.47955 0,0.66145 -0.0734,0.1819 -0.13345,0.0331 -0.13345,-0.33073 z m 0,-2.64583 c 0,-0.3638 0.0601,-0.51263 0.13345,-0.33073 0.0734,0.1819 0.0734,0.47956 0,0.66146 -0.0734,0.1819 -0.13345,0.0331 -0.13345,-0.33073 z m -6.44139,-0.18074 c 0.191,-0.0764 0.4192,-0.067 0.50712,0.0209 0.0879,0.0879 -0.0683,0.15045 -0.34726,0.13896 -0.30823,-0.0127 -0.37092,-0.0754 -0.15986,-0.15985 z M 96.421113,118.46622 c 0.257431,-0.0671 0.614619,-0.0627 0.79375,0.01 0.17913,0.0725 -0.03149,0.12736 -0.468056,0.12197 -0.436563,-0.005 -0.583126,-0.0647 -0.325694,-0.13177 z m 14.431297,-0.52656 c 0.19099,-0.0764 0.4192,-0.067 0.50712,0.0209 0.0879,0.0879 -0.0684,0.15045 -0.34727,0.13896 -0.30822,-0.0127 -0.37092,-0.0754 -0.15985,-0.15985 z m 11.39294,-3.98644 c -0.32911,-0.41965 -0.31975,-0.42901 0.0999,-0.0999 0.25466,0.19972 0.46302,0.40808 0.46302,0.46302 0,0.21776 -0.21728,0.0776 -0.56292,-0.36312 z m -11.60791,-5.45771 c 0,-0.0549 0.20835,-0.2633 0.46302,-0.46302 0.41964,-0.32911 0.429,-0.31975 0.0999,0.0999 -0.34564,0.44073 -0.56291,0.58089 -0.56291,0.36313 z m -45.772923,-1.85209 c 0,-0.0549 0.208359,-0.2633 0.463021,-0.46302 0.419645,-0.3291 0.429003,-0.31975 0.0999,0.0999 -0.345645,0.44073 -0.562917,0.58089 -0.562917,0.36312 z M 102.91491,77.722997 c 0.19099,-0.07643 0.41919,-0.06703 0.50711,0.02089 0.0879,0.08792 -0.0684,0.150453 -0.34726,0.138964 -0.30823,-0.01269 -0.37092,-0.07539 -0.15985,-0.159852 z"
               id="path3095" />
            <path
               style="fill:#606060;fill-opacity:1;stroke-width:0.264583"
               d="m 96.666096,151.85478 c 0.0054,-0.43657 0.06469,-0.58313 0.131773,-0.3257 0.06708,0.25743 0.06267,0.61462 -0.0098,0.79375 -0.07248,0.17913 -0.127363,-0.0315 -0.121971,-0.46805 z m 33.021334,-3.70417 c 0.34178,-0.3638 0.68094,-0.66146 0.7537,-0.66146 0.0728,0 -0.14734,0.29766 -0.48911,0.66146 -0.34178,0.3638 -0.68094,0.66146 -0.7537,0.66146 -0.0728,0 0.14734,-0.29766 0.48911,-0.66146 z m 38.91464,-5.84288 c 0.0127,-0.30823 0.0754,-0.37092 0.15985,-0.15985 0.0764,0.19099 0.067,0.4192 -0.0209,0.50711 -0.0879,0.0879 -0.15046,-0.0684 -0.13897,-0.34726 z m 0.0209,-4.60816 c 0,-0.3638 0.0601,-0.51263 0.13345,-0.33073 0.0734,0.1819 0.0734,0.47956 0,0.66146 -0.0734,0.1819 -0.13345,0.0331 -0.13345,-0.33073 z m -95.489638,-2.51354 c 0.0029,-0.58209 0.05712,-0.78906 0.120407,-0.45994 0.06329,0.32912 0.06088,0.80537 -0.0053,1.05833 -0.06622,0.25297 -0.118004,-0.0163 -0.115067,-0.59839 z m 22.37325,-16.7172 c 0.190995,-0.0764 0.419198,-0.067 0.507119,0.0209 0.08792,0.0879 -0.06835,0.15045 -0.347265,0.13896 -0.308227,-0.0127 -0.37092,-0.0754 -0.159854,-0.15985 z m 35.314868,-1.53905 c 0.002,-0.72761 0.0534,-0.99386 0.11419,-0.59168 0.0608,0.40219 0.0592,0.9975 -0.004,1.32292 -0.0628,0.32542 -0.11256,-0.004 -0.11058,-0.73124 z m -35.314868,-3.75262 c 0.190995,-0.0764 0.419198,-0.067 0.507119,0.0209 0.08792,0.0879 -0.06835,0.15045 -0.347265,0.13896 -0.308227,-0.0127 -0.37092,-0.0754 -0.159854,-0.15985 z"
               id="path3097" />
            <path
               style="fill:#494949;fill-opacity:1;stroke-width:0.264583"
               d="m 105.2827,202.59994 c 0.32912,-0.0633 0.80537,-0.0609 1.05834,0.005 0.25296,0.0662 -0.0163,0.118 -0.5984,0.11507 -0.58208,-0.003 -0.78905,-0.0571 -0.45994,-0.12041 z m -43.607426,-18.79673 -0.911799,-0.99219 0.992188,0.9118 c 0.923506,0.84868 1.113839,1.07258 0.911798,1.07258 -0.04421,0 -0.490698,-0.44649 -0.992187,-0.99219 z m 72.510076,-18.68687 c 0,-0.0549 0.20836,-0.2633 0.46302,-0.46302 0.41965,-0.32911 0.429,-0.31975 0.0999,0.0999 -0.34565,0.44073 -0.56292,0.58089 -0.56292,0.36313 z m -62.156195,-5.08153 c 0.0127,-0.30823 0.07539,-0.37092 0.159851,-0.15985 0.07643,0.19099 0.06703,0.4192 -0.02088,0.50712 -0.08792,0.0879 -0.150452,-0.0684 -0.138964,-0.34727 z m 60.304115,-7.1217 c 0.49365,-0.50932 0.95708,-0.92604 1.02984,-0.92604 0.0728,0 -0.27161,0.41672 -0.76526,0.92604 -0.49365,0.50932 -0.95708,0.92604 -1.02984,0.92604 -0.0728,0 0.2716,-0.41672 0.76526,-0.92604 z m -4.7625,-2.59633 c 0,-0.0455 0.38695,-0.43249 0.85989,-0.8599 l 0.8599,-0.7771 -0.77711,0.85989 c -0.72437,0.80155 -0.94268,0.98151 -0.94268,0.77711 z m 41.0313,-7.2153 c 0.0127,-0.30823 0.0754,-0.37092 0.15985,-0.15985 0.0764,0.19099 0.067,0.4192 -0.0209,0.50711 -0.0879,0.0879 -0.15046,-0.0683 -0.13897,-0.34726 z m 0.0209,-6.46025 c 0,-0.3638 0.0601,-0.51263 0.13345,-0.33072 0.0734,0.1819 0.0734,0.47955 0,0.66145 -0.0734,0.18191 -0.13345,0.0331 -0.13345,-0.33073 z m -73.910137,-18.1724 c 0.190994,-0.0764 0.419197,-0.067 0.507118,0.0209 0.08792,0.0879 -0.06835,0.15045 -0.347265,0.13896 -0.308227,-0.0127 -0.37092,-0.0754 -0.159853,-0.15985 z m 1.703255,-5.29331 c 0.254661,-0.0666 0.67138,-0.0666 0.926041,0 0.254662,0.0665 0.0463,0.121 -0.463021,0.121 -0.509322,0 -0.717682,-0.0545 -0.46302,-0.121 z m 29.268852,-3.19105 c -0.3291,-0.41965 -0.31974,-0.42901 0.0999,-0.0999 0.44073,0.34564 0.58089,0.56292 0.36312,0.56292 -0.0549,0 -0.2633,-0.20836 -0.46302,-0.46302 z"
               id="path3099" />
            <path
               style="fill:#333333;fill-opacity:1;stroke-width:0.264583"
               d="M 103.2291,207.63001 C 94.680948,207.28974 84.817057,204.75624 76.638474,200.80034 65.622188,195.47187 55.024072,185.83774 48.754252,175.45242 37.138411,156.21197 35.609757,133.66467 44.512653,112.88983 51.408639,96.798091 65.188213,83.619242 82.046391,76.992384 c 20.612349,-8.102603 44.809729,-5.153699 63.167509,7.698147 15.58247,10.908923 25.68705,27.666409 28.29443,46.923619 0.60354,4.45756 0.60042,12.76909 -0.006,17.06563 -1.80025,12.74611 -6.54332,23.88515 -14.42065,33.86666 -2.86684,3.63262 -9.36372,9.91265 -11.31862,10.94084 -1.53988,0.8099 -3.51372,-0.35319 -3.57348,-2.10569 -0.0392,-1.148 0.40647,-1.83207 2.08721,-3.20404 3.9403,-3.21645 8.90636,-8.71348 11.91094,-13.18448 7.28596,-10.84195 11.10651,-24.382 10.56029,-37.42579 -0.22384,-5.34537 -0.2881,-5.52987 -1.25327,-3.5984 -0.44642,0.89338 -1.4224,2.1603 -2.33409,3.02991 -1.36436,1.30138 -1.70238,1.49453 -2.61552,1.49453 -0.60517,0 -1.29089,-0.19615 -1.62143,-0.4638 -0.37271,-0.3018 -1.26479,-2.35126 -2.55411,-5.86781 -1.94419,-5.30267 -2.0164,-5.44531 -3.8508,-7.606 -1.73721,-2.04622 -1.94065,-2.20197 -2.87616,-2.20197 -0.99481,0 -1.00339,0.009 -0.72473,0.74708 0.42762,1.1329 0.0239,2.17391 -1.3412,3.45823 -2.98189,2.80546 -6.84937,5.22761 -11.20876,7.01987 -2.69323,1.10726 -3.86981,1.19252 -4.83474,0.35034 -0.37514,-0.32743 -2.23967,-3.57188 -4.14341,-7.2099 -2.90456,-5.55059 -3.48259,-6.84866 -3.59347,-8.06979 -0.12537,-1.38067 -0.22659,-1.55139 -1.97601,-3.33289 -1.66351,-1.69402 -2.03932,-1.93898 -3.84194,-2.50431 -2.54512,-0.79819 -3.51968,-1.65555 -3.51968,-3.09642 0,-0.79002 0.17868,-1.22707 0.72503,-1.77342 0.64257,-0.64257 0.87577,-0.71141 2.05052,-0.60527 0.72902,0.0659 2.30757,0.50354 3.50789,0.97261 1.99196,0.77842 2.43675,1.09939 5.09699,3.67804 l 2.91458,2.8252 0.008,1.71979 c 0.008,1.66721 0.0918,1.8772 2.74121,6.86811 1.50313,2.83158 2.86392,5.19198 3.02398,5.24533 0.40892,0.1363 4.17276,-1.78627 6.02851,-3.07936 2.79603,-1.9483 2.63454,-1.72153 2.08838,-2.93271 -0.62532,-1.38669 -0.43704,-3.23217 0.42518,-4.16757 1.01181,-1.09768 2.0879,-1.40477 4.91694,-1.40315 4.38441,0.002 5.39259,0.52632 8.86742,4.60722 1.85095,2.17379 2.15218,2.69249 3.16115,5.44324 l 1.11525,3.04048 0.48157,-1.63524 c 0.36286,-1.23214 0.81839,-2.00377 1.8479,-3.13023 l 1.36634,-1.49499 -1.24349,-3.69398 c -7.1131,-21.130657 -24.94183,-36.851648 -46.74232,-41.216375 -2.11005,-0.422459 -4.45887,-0.842015 -5.21959,-0.932348 l -1.38313,-0.164241 -3.98146,5.01879 -3.98145,5.018789 -2.04375,0.773977 c -1.12406,0.425687 -5.079844,1.821422 -8.790625,3.101635 -3.710781,1.280213 -6.884759,2.457449 -7.053286,2.61608 -0.334168,0.31455 -3.882823,8.807663 -3.882823,9.292893 0,0.16406 0.863189,1.50731 1.9182,2.985 l 1.918197,2.68671 0.993918,-1.2574 c 1.927928,-2.43901 5.002217,-4.02711 8.524332,-4.40344 3.092066,-0.33038 4.725217,0.53441 4.725217,2.50212 0,1.72921 -1.247648,2.63644 -3.629527,2.63922 -1.607151,0.002 -2.940955,0.3724 -4.06336,1.12879 -0.96289,0.64889 -2.625868,2.68101 -2.625868,3.20874 0,0.25386 0.990021,0.30203 4.329195,0.21065 5.075507,-0.13889 6.48735,0.16603 7.82548,1.69007 0.80193,0.91336 0.99793,1.40995 1.13423,2.87383 0.0587,0.6299 0.35135,0.94736 1.52776,1.65702 l 1.45521,0.87784 0.52917,-0.64949 c 0.66724,-0.81896 2.64214,-1.72509 3.77644,-1.7327 1.18817,-0.008 7.00757,1.74264 8.80714,2.6494 2.58729,1.30367 3.78603,3.04523 6.24054,9.06645 1.74045,4.26955 3.44662,7.46211 4.4664,8.35749 0.59951,0.52638 1.38527,0.8736 2.42429,1.07126 3.73644,0.71084 5.06959,1.35447 5.74244,2.77239 1.1769,2.48014 0.006,4.8329 -4.76902,9.58632 -3.56689,3.55042 -4.59552,4.99179 -4.59552,6.43943 0,0.44622 0.25146,1.78141 0.55881,2.96709 0.89586,3.45612 0.3795,5.40093 -2.26013,8.5125 -0.82801,0.97607 -1.85719,2.55854 -2.28704,3.5166 -0.42985,0.95806 -1.25548,2.33716 -1.83472,3.06467 -0.6853,0.86069 -1.24862,1.98134 -1.61268,3.20822 -0.69006,2.32545 -1.88852,4.00028 -4.1974,5.86577 -3.49909,2.82713 -6.87052,3.71446 -9.26892,2.43948 -1.72964,-0.91945 -2.87964,-2.78564 -5.17891,-8.40413 -4.189555,-10.23762 -4.31719,-10.82795 -3.188991,-14.74951 0.729991,-2.53741 0.862671,-4.08956 0.443751,-5.1914 -0.13818,-0.36342 -0.8339,-1.38386 -1.546058,-2.26764 -1.416552,-1.75793 -1.906884,-3.00724 -1.906884,-4.85857 0,-1.66467 -0.37566,-2.5176 -1.19997,-2.72449 -0.379235,-0.0952 -1.961022,0.0802 -3.515087,0.38969 -3.289548,0.65516 -4.809315,0.69349 -7.221693,0.18214 -6.806753,-1.4428 -11.611165,-7.48861 -11.611165,-14.61133 0,-4.46635 1.295977,-7.66277 4.810159,-11.86388 1.217173,-1.4551 2.686648,-3.29767 3.265503,-4.09461 0.578853,-0.79694 1.500079,-1.96635 2.047166,-2.59869 0.617847,-0.71412 0.91857,-1.27664 0.79375,-1.48476 -0.110524,-0.18428 -1.77854,-2.54213 -3.706698,-5.23968 -1.928159,-2.69754 -3.566639,-5.24688 -3.641064,-5.66521 -0.100772,-0.56642 0.557834,-2.41368 2.579703,-7.235589 2.287437,-5.455253 2.842546,-6.559479 3.524748,-7.011458 0.445349,-0.295057 4.67833,-1.886248 9.40663,-3.53598 l 8.59691,-2.999512 2.23503,-2.800845 c 1.22927,-1.540464 2.28101,-2.918212 2.3372,-3.061662 0.13557,-0.346111 -4.51399,-0.07538 -8.304247,0.483526 -9.768903,1.44052 -19.267661,5.306873 -27.424537,11.162824 l -2.024539,1.453448 1.790311,1.762117 c 2.788267,2.744353 3.891272,5.50774 3.656793,9.161441 -0.17299,2.69553 -1.206844,4.77869 -3.831539,7.72036 -1.655956,1.85593 -2.816146,3.61076 -5.58266,8.44399 -1.920756,3.35565 -3.721874,6.34762 -4.002485,6.64882 -0.280612,0.3012 -1.471444,1.22504 -2.646293,2.05298 -1.17485,0.82794 -2.13609,1.62169 -2.13609,1.76388 0,0.1422 0.773906,1.39201 1.719791,2.77737 1.831239,2.68205 2.101419,3.67339 1.309348,4.80423 -0.630225,0.89977 -1.117633,1.06459 -4.78333,1.61753 -6.718379,1.0134 -7.13725,0.99242 -8.630704,-0.43232 l -0.727605,-0.69413 v 3.62138 c 0,2.72256 0.08209,3.62051 0.33073,3.61791 0.181901,-0.002 1.81901,-0.4766 3.63802,-1.05487 1.819011,-0.57827 3.551259,-1.05296 3.849442,-1.05487 0.728068,-0.005 1.865056,0.76772 7.887462,5.35804 l 5.124977,3.9063 3.370282,0.64736 c 1.853655,0.35605 3.914383,0.91076 4.579392,1.23268 3.431,1.66092 5.126953,5.35607 4.326236,9.42604 -0.274338,1.39443 -0.23999,1.75238 0.360752,3.75944 1.234506,4.12446 0.733329,6.84608 -1.706806,9.26876 -0.99532,0.9882 -1.930569,1.62719 -2.914242,1.99109 l -1.448544,0.53589 -1.114502,5.68182 c -0.612976,3.125 -1.121989,5.93926 -1.131144,6.25391 -0.04561,1.56823 10.411717,7.36245 17.536347,9.71658 13.147831,4.34431 26.721534,4.22318 40.241964,-0.35909 1.3006,-0.4408 2.63092,-0.80145 2.95626,-0.80145 0.81907,0 2.12817,1.16721 2.29646,2.04755 0.19549,1.02264 -0.42611,2.34537 -1.31276,2.79349 -1.02228,0.51667 -5.31714,1.90055 -7.8922,2.543 -4.90377,1.22345 -12.97871,2.24292 -16.53646,2.08775 -0.65485,-0.0286 -2.0836,-0.0875 -3.175,-0.13093 z M 65.644193,180.31966 c 1.224463,-6.52843 1.253848,-6.58345 3.953955,-7.40359 1.885659,-0.57275 3.015414,-1.49902 3.298454,-2.70438 0.09753,-0.41535 -0.100859,-1.57379 -0.495083,-2.89089 -0.693428,-2.31673 -0.82033,-4.38688 -0.384677,-6.27521 0.313877,-1.36048 -0.14445,-2.70321 -1.146919,-3.36005 -0.359354,-0.23546 -2.244534,-0.73261 -4.189285,-1.10477 -1.944752,-0.37216 -3.913996,-0.8939 -4.376099,-1.15942 -0.462102,-0.26552 -3.116078,-2.21842 -5.897725,-4.33977 -2.781647,-2.12136 -5.205486,-3.85701 -5.38631,-3.85701 -0.180824,0 -1.694035,0.45819 -3.362691,1.01821 -3.476259,1.16666 -3.206018,0.5938 -2.327983,4.93491 2.223973,10.99561 8.782655,23.06008 16.879748,31.04971 1.231919,1.21557 2.269551,2.10854 2.305849,1.98438 0.0363,-0.12417 0.544242,-2.77562 1.128766,-5.89212 z m 47.912397,1.42459 c 1.8779,-1.29659 2.91,-2.6092 3.33684,-4.24371 0.49766,-1.90578 0.95693,-2.83348 2.10418,-4.25032 0.48727,-0.60178 1.28785,-1.97605 1.77906,-3.05394 0.5299,-1.1628 1.50308,-2.6434 2.39303,-3.64079 0.82497,-0.92456 1.57246,-1.96996 1.6611,-2.32312 0.0886,-0.35316 -0.10882,-1.76293 -0.4388,-3.13282 -1.18035,-4.90023 -0.2692,-7.11157 5.22157,-12.67254 l 3.64574,-3.69236 -1.88446,-0.4299 c -4.59779,-1.04889 -6.51163,-3.38185 -10.30222,-12.55831 -2.35836,-5.70925 -2.68522,-6.11782 -5.6727,-7.09073 -3.54746,-1.15527 -3.62896,-1.15718 -4.72367,-0.111 -1.71669,1.64061 -3.48515,1.8425 -6.09728,0.69608 -1.71328,-0.75193 -6.61926,-3.93853 -6.915326,-4.49174 -0.140464,-0.26246 -0.255389,-0.90956 -0.255389,-1.43801 v -0.96082 l -3.505729,0.18857 c -5.606616,0.30157 -5.470398,0.23778 -8.265556,3.87043 -1.311159,1.70401 -3.065095,3.91572 -3.897638,4.91491 -4.443621,5.33309 -4.450651,11.35627 -0.01799,15.40748 2.483273,2.26958 5.65445,2.9058 9.866071,1.97942 2.03489,-0.4476 4.512564,-0.50009 5.865643,-0.12427 0.533969,0.1483 1.56505,0.80388 2.291292,1.45684 1.539492,1.38413 2.161812,2.87317 2.161812,5.1726 0,1.38893 0.095,1.63466 1.13277,2.92943 1.67633,2.0915 2.00979,2.69915 2.47258,4.50557 0.491,1.91656 0.35005,3.84382 -0.47692,6.52125 -0.80176,2.59579 -0.58496,3.88817 1.49425,8.90732 0.96452,2.32834 2.04629,4.94771 2.40393,5.82084 0.35765,0.87312 0.88688,1.97631 1.17607,2.45152 l 0.52581,0.86402 0.99357,-0.41324 c 0.54646,-0.22729 1.41422,-0.70368 1.92835,-1.05866 z M 51.165399,132.70218 c 0.105328,-0.096 -0.168786,-0.70753 -0.609143,-1.35891 -1.480137,-2.18943 -1.889513,-3.17243 -1.713008,-4.11329 0.186915,-0.99634 0.540158,-1.32062 4.447133,-4.08249 l 2.807115,-1.98438 3.523615,-6.19354 c 2.880988,-5.06398 3.889483,-6.59056 5.529725,-8.37047 2.345232,-2.54491 2.8923,-3.56251 2.94038,-5.46935 0.06103,-2.420344 -1.655064,-5.157915 -3.786846,-6.040929 -0.773323,-0.32032 -0.844537,-0.285771 -2.262882,1.097823 -8.113177,7.914396 -14.287757,19.466626 -16.776541,31.387796 l -0.539567,2.5845 1.669048,1.53011 1.669048,1.53011 1.455208,-0.1712 c 0.800365,-0.0942 1.541386,-0.24976 1.646715,-0.34578 z m 86.381201,65.95841 c -1.40862,-0.76375 -1.63546,-2.57145 -0.48436,-3.85977 1.79722,-2.01144 5.09304,-0.20565 4.25565,2.33168 -0.5687,1.72315 -2.19568,2.38239 -3.77129,1.52809 z m -1.84559,-14.73709 c -1.43948,-0.45977 -2.60264,-1.49497 -3.46963,-3.08791 -1.0138,-1.86268 -1.02484,-3.83838 -0.0378,-6.75582 0.59189,-1.74939 0.68654,-2.38306 0.54548,-3.65197 -0.36025,-3.24071 1.03434,-5.48855 4.54443,-7.32482 1.56242,-0.81737 1.70147,-0.97279 2.83678,-3.17097 1.3777,-2.66748 1.61898,-2.91676 3.00271,-3.10236 1.66506,-0.22334 2.31669,0.55695 3.24751,3.88876 0.42686,1.52792 0.77685,3.0239 0.77776,3.32441 0.002,0.6374 -3.07497,11.05796 -4.03717,13.67274 -1.80564,4.90681 -4.47698,7.14478 -7.4101,6.20794 z m 1.78049,-6.2503 c 0.82071,-1.58707 3.31843,-9.30651 3.31843,-10.2559 0,-0.19018 -0.59418,0.0196 -1.45375,0.51335 l -1.45374,0.835 0.0347,2.39248 c 0.0291,2.00845 -0.0772,2.68011 -0.66292,4.18446 -0.71638,1.84009 -0.89539,3.10281 -0.43986,3.10281 0.14178,0 0.43748,-0.34749 0.65711,-0.7722 z m -29.35761,-69.06334 c -0.90232,-0.36931 -1.50812,-1.25918 -1.50812,-2.2153 0,-1.21908 0.46029,-2.00683 1.40465,-2.4039 2.70365,-1.1368 4.95584,2.04204 2.90195,4.09593 -0.78978,0.78978 -1.72161,0.96402 -2.79848,0.52327 z"
               id="path3101" />
          </g>
        </g>
      </g>
    </g>
  </g>
</svg>
